<?xml version="1.0" encoding="UTF-8" standalone="no" ?>
<!DOCTYPE svg PUBLIC "-//W3C//DTD SVG 1.1//EN" "http://www.w3.org/Graphics/SVG/1.1/DTD/svg11.dtd">
<svg xmlns="http://www.w3.org/2000/svg" xmlns:xlink="http://www.w3.org/1999/xlink" version="1.1" width="1280" height="1024" viewBox="0 0 1280 1024" xml:space="preserve">
<desc>Created with Fabric.js 3.6.3</desc>
<defs>
</defs>
<g transform="matrix(1.9692307692307693 0 0 1.9692307692307693 640 512)" id="background-logo"  >
<rect style="stroke: none; stroke-width: 0; stroke-dasharray: none; stroke-linecap: butt; stroke-dashoffset: 0; stroke-linejoin: miter; stroke-miterlimit: 4; fill: rgb(20,56,116); fill-rule: nonzero; opacity: 1;"  paint-order="stroke"  x="-325" y="-260" rx="0" ry="0" width="650" height="520" />
</g>
<g transform="matrix(1.9692307692307693 0 0 1.9692307692307693 640 365.03067705048966)" id="logo-logo"  >
<g style=""  paint-order="stroke"   >
		<g transform="matrix(1.887082789698052 0 0 -1.887082789698052 0 0)"  >
<path style="stroke: none; stroke-width: 1; stroke-dasharray: none; stroke-linecap: butt; stroke-dashoffset: 0; stroke-linejoin: miter; stroke-miterlimit: 4; fill: rgb(255,255,255); fill-rule: nonzero; opacity: 1;"  paint-order="stroke"  transform=" translate(-34.32725000000001, -6.9339999999999975)" d="m 0 0 v -49.042 l -24.521 24.521 z M 68.655 13.868 V 62.911 L 93.175 38.39 Z m -27.394 -35.516 l 24.522 24.52 l 24.52 -24.52 z M 5.744 0 L 30.266 -24.521 L 5.744 -49.042 Z M -1.189 6.935 L -25.71 -17.587 v 49.043 z m 64.1 6.933 L 38.39 38.39 L 62.911 62.911 Z M 2.872 10.996 L -21.648 35.518 H 27.394 Z M 6.934 6.935 L 34.328 34.328 L 61.721 6.935 L 34.328 -20.459 Z M 4.062 66.973 H 58.849 L 33.138 41.262 H -21.648 L -9.31 53.601 Z M 64.593 -53.104 H 9.806 l 25.711 25.711 h 54.786 z m 35.297 27.485 c 0.039 0.094 0.061 0.191 0.089 0.288 c 0.025 0.083 0.057 0.162 0.074 0.248 c 0.074 0.371 0.074 0.753 0 1.125 c -0.017 0.085 -0.049 0.164 -0.074 0.246 c -0.028 0.098 -0.05 0.195 -0.089 0.289 c -0.041 0.099 -0.097 0.189 -0.148 0.281 c -0.039 0.072 -0.07 0.145 -0.116 0.213 c -0.105 0.159 -0.226 0.307 -0.36 0.442 L 69.844 6.935 L 99.268 36.358 c 1.122 1.122 1.122 2.941 0 4.063 L 67.814 71.875 c -0.132 0.132 -0.277 0.251 -0.434 0.355 c -0.043 0.03 -0.092 0.048 -0.137 0.076 c -0.116 0.068 -0.231 0.137 -0.356 0.189 c -0.061 0.026 -0.127 0.038 -0.189 0.06 c -0.115 0.038 -0.227 0.081 -0.347 0.104 c -0.186 0.038 -0.376 0.058 -0.568 0.058 H 2.872 C 2.855 72.717 2.84 72.712 2.823 72.712 C 2.653 72.709 2.483 72.694 2.315 72.662 C 2.258 72.65 2.205 72.627 2.149 72.612 C 2.024 72.58 1.899 72.55 1.779 72.5 C 1.718 72.475 1.664 72.438 1.604 72.408 C 1.496 72.354 1.386 72.305 1.283 72.236 C 1.125 72.132 0.977 72.012 0.841 71.876 L -30.613 40.421 c -0.132 -0.132 -0.251 -0.277 -0.356 -0.434 c -0.002 -0.003 -0.004 -0.006 -0.006 -0.009 c -0.046 -0.069 -0.076 -0.143 -0.115 -0.214 c -0.049 -0.089 -0.103 -0.175 -0.143 -0.27 c -0.002 -0.004 -0.003 -0.008 -0.005 -0.012 c -0.038 -0.092 -0.059 -0.19 -0.087 -0.285 c -0.024 -0.08 -0.056 -0.157 -0.072 -0.239 c -0.001 -0.004 -0.002 -0.008 -0.002 -0.012 c -0.037 -0.183 -0.056 -0.37 -0.056 -0.556 v -62.911 c 0 -0.188 0.02 -0.376 0.057 -0.562 c 0.017 -0.086 0.049 -0.165 0.073 -0.248 c 0.029 -0.097 0.051 -0.194 0.09 -0.288 c 0.041 -0.099 0.097 -0.189 0.148 -0.281 c 0.039 -0.072 0.07 -0.145 0.115 -0.213 c 0.106 -0.158 0.227 -0.307 0.361 -0.441 l 31.45 -31.45 c 0.133 -0.134 0.28 -0.254 0.436 -0.359 c 0.034 -0.023 0.072 -0.036 0.107 -0.058 c 0.124 -0.075 0.25 -0.149 0.387 -0.206 c 0.054 -0.022 0.113 -0.033 0.169 -0.053 c 0.121 -0.042 0.239 -0.086 0.366 -0.111 c 0.186 -0.037 0.376 -0.058 0.568 -0.058 h 62.911 c 0.188 0 0.377 0.021 0.562 0.057 c 0.085 0.018 0.164 0.049 0.247 0.073 c 0.097 0.029 0.195 0.051 0.289 0.09 c 0.098 0.041 0.186 0.096 0.279 0.147 c 0.071 0.04 0.146 0.071 0.215 0.117 c 0.159 0.106 0.307 0.226 0.441 0.361 l 31.45 31.45 c 0.134 0.134 0.255 0.283 0.36 0.441 c 0.046 0.068 0.077 0.141 0.116 0.213 c 0.051 0.092 0.107 0.182 0.148 0.281" stroke-linecap="round" />
</g>
</g>
</g>
<g transform="matrix(1.9692307692307693 0 0 1.9692307692307693 645.4759615384615 737.4873221000064)" id="text-logo-path"  >
<path style="stroke: none; stroke-width: 0; stroke-dasharray: none; stroke-linecap: butt; stroke-dashoffset: 0; stroke-linejoin: miter; stroke-miterlimit: 4; fill: rgb(255,255,255); fill-rule: nonzero; opacity: 1;"  paint-order="stroke"  transform=" translate(-256.825, 27.62)" d="M 7.22 -10.63 L 7.22 -10.63 L 7.22 -44.62 Q 7.22 -50.3 10.71 -53.42 Q 14.19 -56.53 21.17 -56.53 Q 28.14 -56.53 31.71 -53.42 Q 35.28 -50.3 35.28 -44.62 L 35.28 -44.62 L 35.28 -36.56 L 29.34 -36.56 L 29.34 -44.62 Q 29.34 -51.42 21.25 -51.42 Q 13.16 -51.42 13.16 -44.62 L 13.16 -44.62 L 13.16 -10.63 Q 13.16 -3.82 21.25 -3.82 Q 29.34 -3.82 29.34 -10.63 L 29.34 -10.63 L 29.34 -15.31 L 35.28 -15.31 L 35.28 -10.63 Q 35.28 -4.94 31.79 -1.83 Q 28.31 1.29 21.33 1.29 Q 14.36 1.29 10.79 -1.83 Q 7.22 -4.94 7.22 -10.63 Z M 56.07 0 L 50.14 0 L 50.14 -55.24 L 56.07 -55.24 L 56.07 -30.59 L 72.84 -30.59 L 72.84 -55.24 L 78.77 -55.24 L 78.77 0 L 72.84 0 L 72.84 -25.48 L 56.07 -25.48 L 56.07 0 Z M 101.68 0 L 95.75 0 L 95.75 -55.24 L 98.28 -55.24 L 100.77 -48.97 Q 103.51 -56.53 109.45 -56.53 L 109.45 -56.53 Q 119.57 -56.53 119.53 -45.49 L 119.53 -45.49 L 119.53 -39.97 L 113.85 -39.97 L 113.85 -45.82 Q 113.85 -51.42 109.16 -51.42 L 109.16 -51.42 Q 106.33 -51.42 104.01 -48.19 Q 101.68 -44.95 101.68 -38.85 L 101.68 -38.85 L 101.68 0 Z M 135.68 0 L 129.74 0 L 129.74 -55.24 L 135.68 -55.24 L 135.68 0 Z M 150.95 -10.63 L 150.95 -10.63 L 150.95 -17.85 L 156.88 -17.85 L 156.88 -10.29 Q 156.88 -7.22 159.02 -5.52 Q 161.16 -3.82 165.31 -3.82 Q 169.46 -3.82 171.6 -5.52 Q 173.74 -7.22 173.74 -10.15 Q 173.74 -13.07 173.09 -14.82 Q 172.45 -16.56 170.5 -18.51 L 170.5 -18.51 L 155.52 -33.16 Q 152.9 -35.78 151.93 -38.29 Q 150.95 -40.8 150.95 -44.62 L 150.95 -44.62 Q 150.95 -50.3 154.48 -53.42 Q 158.01 -56.53 165.14 -56.53 L 165.14 -56.53 Q 178.84 -56.53 178.84 -44.62 L 178.84 -44.62 L 178.84 -37.4 L 172.86 -37.4 L 172.86 -44.95 Q 172.86 -48.02 170.87 -49.72 Q 168.88 -51.42 164.87 -51.42 Q 160.87 -51.42 158.88 -49.72 Q 156.88 -48.02 156.88 -45.05 Q 156.88 -42.08 157.49 -40.38 Q 158.09 -38.68 160.12 -36.81 L 160.12 -36.81 L 175.35 -22.2 Q 177.8 -19.47 178.74 -16.95 Q 179.67 -14.44 179.67 -10.63 L 179.67 -10.63 Q 179.67 1.29 165.31 1.29 Q 150.95 1.29 150.95 -10.63 Z M 220.43 0 L 214.49 0 L 214.49 -55.24 L 220.43 -55.24 L 220.43 -30.59 L 237.19 -30.59 L 237.19 -55.24 L 243.13 -55.24 L 243.13 0 L 237.19 0 L 237.19 -25.48 L 220.43 -25.48 L 220.43 0 Z M 258.4 -10.63 L 258.4 -10.63 L 258.4 -19.13 Q 258.4 -31.04 270.65 -31.04 L 270.65 -31.04 L 280.48 -31.04 L 280.48 -44.95 Q 280.48 -48.02 278.53 -49.72 Q 276.58 -51.42 272.76 -51.42 L 272.76 -51.42 Q 265.21 -51.42 265.21 -44.95 L 265.21 -44.95 L 265.21 -39.97 L 259.23 -39.97 L 259.23 -44.62 Q 259.23 -50.3 262.6 -53.42 Q 265.96 -56.53 272.76 -56.53 Q 279.57 -56.53 283.02 -53.42 Q 286.46 -50.3 286.46 -44.62 L 286.46 -44.62 L 286.46 0 L 283.89 0 L 281.69 -5.44 Q 279.9 -2.37 277.02 -0.54 Q 274.13 1.29 270.65 1.29 L 270.65 1.29 Q 258.4 1.29 258.4 -10.63 Z M 264.34 -19.13 L 264.34 -10.63 Q 264.34 -7.39 265.71 -5.6 Q 267.08 -3.82 270.65 -3.82 Q 274.22 -3.82 277.27 -6.58 Q 280.32 -9.34 280.48 -12.08 L 280.48 -12.08 L 280.48 -25.94 L 270.65 -25.94 Q 267.08 -25.94 265.71 -24.16 Q 264.34 -22.37 264.34 -19.13 L 264.34 -19.13 Z M 308.54 0 L 302.6 0 L 302.6 -55.24 L 305.14 -55.24 L 307.63 -48.97 Q 310.37 -56.53 316.3 -56.53 L 316.3 -56.53 Q 326.43 -56.53 326.39 -45.49 L 326.39 -45.49 L 326.39 -39.97 L 320.7 -39.97 L 320.7 -45.82 Q 320.7 -51.42 316.01 -51.42 L 316.01 -51.42 Q 313.19 -51.42 310.86 -48.19 Q 308.54 -44.95 308.54 -38.85 L 308.54 -38.85 L 308.54 0 Z M 335.31 -9.79 L 335.31 -9.79 L 335.31 -55.24 L 354.03 -55.24 L 354.03 -50.14 L 341.25 -50.14 L 341.25 -9.42 Q 341.25 -7.06 342.49 -5.44 Q 343.74 -3.82 345.98 -3.82 Q 348.22 -3.82 349.42 -5.4 Q 350.63 -6.97 350.63 -9.42 L 350.63 -9.42 L 350.63 -19.55 L 356.56 -19.55 L 356.56 -9.79 Q 356.56 -4.44 353.72 -1.58 Q 350.87 1.29 346.02 1.29 Q 341.16 1.29 338.24 -1.56 Q 335.31 -4.4 335.31 -9.79 Z M 366.77 -10.63 L 366.77 -10.63 L 366.77 -17.85 L 372.71 -17.85 L 372.71 -10.29 Q 372.71 -7.22 374.84 -5.52 Q 376.98 -3.82 381.13 -3.82 Q 385.28 -3.82 387.42 -5.52 Q 389.56 -7.22 389.56 -10.15 Q 389.56 -13.07 388.91 -14.82 Q 388.27 -16.56 386.32 -18.51 L 386.32 -18.51 L 371.34 -33.16 Q 368.72 -35.78 367.75 -38.29 Q 366.77 -40.8 366.77 -44.62 L 366.77 -44.62 Q 366.77 -50.3 370.3 -53.42 Q 373.83 -56.53 380.96 -56.53 L 380.96 -56.53 Q 394.66 -56.53 394.66 -44.62 L 394.66 -44.62 L 394.66 -37.4 L 388.68 -37.4 L 388.68 -44.95 Q 388.68 -48.02 386.69 -49.72 Q 384.7 -51.42 380.69 -51.42 Q 376.69 -51.42 374.7 -49.72 Q 372.71 -48.02 372.71 -45.05 Q 372.71 -42.08 373.31 -40.38 Q 373.91 -38.68 375.94 -36.81 L 375.94 -36.81 L 391.17 -22.2 Q 393.62 -19.47 394.56 -16.95 Q 395.49 -14.44 395.49 -10.63 L 395.49 -10.63 Q 395.49 1.29 381.13 1.29 Q 366.77 1.29 366.77 -10.63 Z M 409.48 -10.63 L 409.48 -10.63 L 409.48 -44.62 Q 409.48 -50.3 412.96 -53.42 Q 416.45 -56.53 423.42 -56.53 Q 430.4 -56.53 433.96 -53.42 Q 437.53 -50.3 437.53 -44.62 L 437.53 -44.62 L 437.53 -25.94 L 415.41 -25.94 L 415.41 -10.63 Q 415.41 -3.82 423.51 -3.82 Q 431.6 -3.82 431.6 -10.63 L 431.6 -10.63 L 431.6 -15.31 L 437.53 -15.31 L 437.53 -10.63 Q 437.53 -4.94 434.05 -1.83 Q 430.56 1.29 423.59 1.29 Q 416.62 1.29 413.05 -1.83 Q 409.48 -4.94 409.48 -10.63 Z M 415.41 -44.62 L 415.41 -31.04 L 431.6 -31.04 L 431.6 -44.62 Q 431.6 -51.42 423.51 -51.42 Q 415.41 -51.42 415.41 -44.62 L 415.41 -44.62 Z M 474.76 0 L 453.26 0 L 453.26 -55.24 L 459.2 -55.24 L 459.2 -5.1 L 474.76 -5.1 L 474.76 0 Z M 506.43 0 L 484.93 0 L 484.93 -55.24 L 490.87 -55.24 L 490.87 -5.1 L 506.43 -5.1 L 506.43 0 Z" stroke-linecap="round" />
</g>
</svg>